PathFileType	4	(X/Y/Z)	E:\Qualisys_Data\Carbon_Farble_Plate\Data\Amateur_Runner\S2\T3\S2T3V13_c3d.trc
DataRate	CameraRate	NumFrames	NumMarkers	Units	OrigDataRate	OrigDataStartFrame	OrigNumFrames
200.000000	200.000000	5	39	mm	200.000000	78	312
Frame#	Time	LSHO			RSHO			LICST			RICST			LASIS			LHEEL			RASIS			LTROC			RTROC			SACR			LTH1			LSK4			LTH2			LTH3			RHM5			LSK2			LTH4			RTH1			LTOE			RTH2			RTH3			RTH4			LLEP			RLEP			LSK1			LSK3			RSK1			LHM5			RSK2			LFT1			RSK3			RSK4			LLME			RLME			RTOE			RHEEL			RFT1			RFT2			LFT2			
		X1	Y1	Z1	X2	Y2	Z2	X3	Y3	Z3	X4	Y4	Z4	X5	Y5	Z5	X6	Y6	Z6	X7	Y7	Z7	X8	Y8	Z8	X9	Y9	Z9	X10	Y10	Z10	X11	Y11	Z11	X12	Y12	Z12	X13	Y13	Z13	X14	Y14	Z14	X15	Y15	Z15	X16	Y16	Z16	X17	Y17	Z17	X18	Y18	Z18	X19	Y19	Z19	X20	Y20	Z20	X21	Y21	Z21	X22	Y22	Z22	X23	Y23	Z23	X24	Y24	Z24	X25	Y25	Z25	X26	Y26	Z26	X27	Y27	Z27	X28	Y28	Z28	X29	Y29	Z29	X30	Y30	Z30	X31	Y31	Z31	X32	Y32	Z32	X33	Y33	Z33	X34	Y34	Z34	X35	Y35	Z35	X36	Y36	Z36	X37	Y37	Z37	X38	Y38	Z38	X39	Y39	Z39	

79	0.39	-1326.74462890625	1505.541381835938	-523.732421875	-1237.495849609375	1476.326538085938	-231.1449279785156	-1345.913208007812	1039.9814453125	-513.8597412109375	-1297.221801757812	1024.408325195312	-218.5624847412109	-1287.569458007812	989.408203125	-500.8878479003906	-1229.360961914062	103.0308837890625	-393.6841430664062	-1250.035888671875	970.6071166992188	-246.989013671875	-1410.874755859375	916.2166748046876	-513.7591552734375	-1405.945434570312	947.843017578125	-196.5182952880859	-1414.47021484375	1079.06201171875	-348.6426391601562	-1216.836669921875	693.9517822265625	-530.3712158203125	-1241.674072265625	310.1634521484375	-486.5592956542969	-1297.78759765625	669.7421264648438	-523.15625	-1186.934692382812	599.4730224609375	-500.0092468261719	-1848.6220703125	173.8565979003906	-251.0881500244141	-1248.60986328125	407.8033142089844	-502.3106994628906	-1268.271240234375	577.3434448242188	-493.2305603027344	-1375.569213867188	657.3019409179688	-210.9078216552734	-996.294921875	181.6678466796875	-439.9608459472656	-1445.969360351562	688.4224853515625	-203.918701171875	-1417.320434570312	566.075927734375	-223.3487396240234	-1489.546508789062	601.1599731445312	-220.0023803710938	-1215.4677734375	545.2644653320312	-491.5042114257812	-1485.090942382812	558.7640991210938	-215.9367218017578	-1171.597534179688	414.9671020507812	-494.6238098144531	-1164.088745117188	315.6629638671875	-482.6005249023438	-1561.265991210938	457.9131469726562	-211.7919311523438	-1050.733032226562	133.4562225341797	-489.3550720214844	-1608.3779296875	522.5037231445312	-206.2496643066406	-1206.69482421875	82.71875	-365.3282470703125	-1642.869995117188	398.4876403808594	-217.6076049804688	-1687.2373046875	463.0078430175781	-219.4900054931641	-1178.517578125	134.9474487304688	-453.611083984375	-1817.209106445312	312.4554748535156	-248.8238983154297	-1806.248168945312	122.0330200195312	-310.9382629394531	-1835.829467773438	372.6996154785156	-299.9531555175781	-1851.35693359375	361.2537841796875	-337.7364196777344	-1864.782348632812	367.5301818847656	-286.8633728027344	-1218.831420898438	69.89802551269531	-416.4456481933594
80	0.395	-1311.146484375	1502.625854492188	-524.4802856445312	-1221.634399414062	1474.360595703125	-231.8250579833984	-1330.24365234375	1037.799438476562	-513.7210693359375	-1281.866088867188	1021.818664550781	-218.1965637207031	-1272.355224609375	987.16552734375	-501.1139526367188	-1211.673461914062	100.4218139648438	-391.3463745117188	-1234.068725585938	969.1218872070312	-246.4511260986328	-1394.223266601562	913.2738037109376	-513.1345825195312	-1389.2255859375	945.2387084960938	-196.4996490478516	-1398.942626953125	1076.553100585938	-348.3407592773438	-1201.434814453125	690.2274169921875	-530.7235717773438	-1224.919921875	307.5241088867188	-485.6263427734375	-1282.61474609375	665.93701171875	-523.4625244140625	-1171.960327148438	596.101318359375	-499.1141967773438	-1836.033935546875	178.5230102539062	-251.4543609619141	-1232.176879882812	405.2608337402344	-501.3867797851562	-1253.4853515625	573.8275756835938	-493.0605773925781	-1356.885375976562	654.6054077148438	-210.7622833251953	-979.4329833984376	180.3564453125	-439.5465393066406	-1427.639770507812	684.5883178710938	-203.3745727539062	-1397.22119140625	562.9583129882812	-222.1912231445312	-1470.301025390625	597.6612548828125	-218.9814300537109	-1200.188720703125	543.0107421875	-490.8742065429688	-1465.238525390625	555.17333984375	-215.147705078125	-1155.316772460938	412.591796875	-493.6499938964844	-1146.91455078125	313.2958374023438	-481.1072082519531	-1543.426635742188	455.5563049316406	-209.5898895263672	-1034.199829101562	131.713623046875	-488.2247619628906	-1589.102172851562	521.72119140625	-205.1182556152344	-1188.722778320312	80.57913970947266	-363.2568664550781	-1626.380004882812	397.1369323730469	-217.6916198730469	-1669.316284179688	463.9129028320312	-218.6467895507812	-1161.671508789062	132.3508605957031	-451.8330993652344	-1802.313232421875	316.3378601074219	-248.5778045654297	-1794.753295898438	126.8524551391602	-310.53369140625	-1821.76953125	377.3285827636719	-300.5584106445312	-1836.959106445312	365.42138671875	-337.1632385253906	-1850.099731445312	372.4006042480469	-286.1399230957031	-1200.943237304688	67.42220306396484	-414.3528747558594
81	0.4	-1295.118041992188	1499.43505859375	-525.9325561523438	-1206.106811523438	1471.789306640625	-232.5841827392578	-1314.682006835938	1034.339477539062	-513.4436645507812	-1266.711791992188	1020.435546875	-218.1412048339844	-1256.435668945312	984.0931396484376	-500.6745300292969	-1195.350830078125	97.36431121826172	-388.9063110351562	-1218.305541992188	967.1790771484376	-245.9910278320312	-1378.729125976562	910.128662109375	-513.2926635742188	-1373.016845703125	942.111572265625	-195.8742980957031	-1383.337524414062	1074.070922851562	-348.5383911132812	-1186.249145507812	686.323486328125	-530.6027221679688	-1209.120727539062	304.6897583007812	-485.0118408203125	-1267.83984375	661.8624267578125	-524.5001220703125	-1156.5751953125	592.7510986328125	-497.9943237304688	-1823.668090820312	183.1657104492188	-251.3552856445312	-1215.628051757812	402.124755859375	-500.8295593261719	-1238.128173828125	569.886962890625	-492.8871765136719	-1338.033569335938	651.7144165039062	-209.51953125	-963.8591918945312	178.5768585205078	-439.2273559570312	-1408.705810546875	681.2457275390625	-202.1909790039062	-1378.122924804688	559.254638671875	-221.1734008789062	-1451.221923828125	592.9627685546875	-218.0602264404297	-1184.126831054688	540.3584594726562	-489.7974548339844	-1446.055053710938	551.0855712890625	-214.4709320068359	-1139.403930664062	409.7620239257812	-492.1582946777344	-1130.806030273438	310.944580078125	-479.1919250488281	-1525.171997070312	453.3205261230469	-209.0286407470703	-1018.419067382812	129.5370330810547	-487.128662109375	-1569.234619140625	520.1583251953125	-204.4989471435547	-1172.211669921875	78.05740356445312	-361.1242980957031	-1610.526123046875	397.0336303710938	-217.1344757080078	-1651.370971679688	464.85009765625	-218.0681610107422	-1145.272583007812	129.7644195556641	-449.9497985839844	-1788.196655273438	321.0448303222656	-248.7875213623047	-1782.029418945312	131.2847442626953	-309.723388671875	-1806.343139648438	382.02783203125	-300.4336242675781	-1821.846435546875	370.273681640625	-337.4504699707031	-1835.555053710938	377.718994140625	-286.734619140625	-1184.557250976562	64.52334594726562	-411.6398010253906
82	0.405	-1279.231567382812	1495.84521484375	-526.9854736328125	-1190.282836914062	1469.052124023438	-233.2244567871094	-1299.368286132812	1031.711181640625	-513.2685546875	-1251.30322265625	1017.635681152344	-217.2674865722656	-1240.720336914062	981.3313598632812	-500.3618469238281	-1179.9990234375	95.06265258789062	-386.6697082519531	-1202.611206054688	964.79296875	-245.8173522949219	-1362.4423828125	906.8531494140624	-513.5053100585938	-1357.0400390625	938.552978515625	-195.8331146240234	-1368.716796875	1071.06640625	-348.6136474609375	-1170.56640625	682.7557983398438	-530.0184936523438	-1193.332153320312	301.7081909179688	-484.0682983398438	-1252.22265625	657.4328002929688	-525.8084716796875	-1141.137573242188	589.6802368164062	-495.8789978027344	-1810.80078125	188.2787628173828	-250.9587860107422	-1199.646606445312	399.1481323242188	-500.4237976074219	-1222.553955078125	566.2660522460938	-492.1249694824219	-1320.160888671875	648.57861328125	-209.0721588134766	-948.9076538085938	176.2818450927734	-438.4225158691406	-1392.236083984375	676.8912353515625	-200.4690399169922	-1358.315795898438	555.53466796875	-220.3067932128906	-1432.005981445312	588.3603515625	-217.2476501464844	-1168.467407226562	537.19287109375	-489.2099304199219	-1426.402587890625	546.9060668945312	-213.59765625	-1123.054077148438	406.5786743164062	-491.0729675292969	-1114.506225585938	307.8298950195312	-477.5474853515625	-1506.813232421875	450.8803100585938	-208.566162109375	-1003.299987792969	126.4917602539062	-485.8218688964844	-1549.398559570312	518.7670288085938	-203.5036315917969	-1156.640991210938	75.82894897460938	-358.5464172363281	-1593.273193359375	396.8323669433594	-216.1987915039062	-1632.0693359375	465.5278930664062	-217.5643768310547	-1129.881958007812	126.5908050537109	-448.1917724609375	-1773.08056640625	325.4063720703125	-248.5599517822266	-1771.140991210938	135.080810546875	-307.9259033203125	-1790.4931640625	386.484130859375	-300.8164672851562	-1806.543334960938	374.7948608398438	-337.7293090820312	-1820.163818359375	382.9690856933594	-287.396484375	-1168.968017578125	61.19182205200195	-409.4454345703125
83	0.41	-1263.703002929688	1491.843872070312	-528.0030517578125	-1174.711669921875	1466.088256835938	-234.0456390380859	-1283.804443359375	1028.479248046875	-513.400390625	-1235.898071289062	1014.975952148438	-217.5346374511719	-1224.953002929688	978.7200317382812	-500.5272216796875	-1165.372314453125	91.63387298583984	-384.4439392089844	-1186.927734375	962.490478515625	-245.2446441650391	-1346.870727539062	903.8429565429688	-513.459716796875	-1341.160034179688	934.4527587890624	-195.9838256835938	-1352.927368164062	1067.590209960938	-347.9592895507812	-1155.194580078125	678.9961547851562	-528.4398803710938	-1177.657836914062	298.5108642578125	-482.9828186035156	-1236.226196289062	653.0518798828125	-526.1974487304688	-1125.16845703125	586.9608154296875	-493.2782897949219	-1796.737670898438	192.9384002685547	-249.7086639404297	-1183.974731445312	395.9300537109375	-499.5523986816406	-1206.2265625	562.5318603515625	-491.5059814453125	-1301.965209960938	644.8275146484375	-208.3209381103516	-934.6660766601562	173.0007934570312	-436.9918212890625	-1373.141967773438	672.8099365234375	-199.5921020507812	-1339.023803710938	551.2902221679688	-219.3353576660156	-1412.77734375	583.4911499023438	-216.6037902832031	-1152.185302734375	534.5452880859375	-488.6412353515625	-1406.224975585938	541.8894653320312	-212.4528045654297	-1107.320190429688	403.2489013671875	-490.0732727050781	-1098.871337890625	304.1871948242188	-475.9372863769531	-1488.498291015625	447.6028442382812	-207.7721557617188	-988.8565063476562	122.5898818969727	-483.7704162597656	-1529.087890625	516.6111450195312	-202.9411468505859	-1142.555908203125	72.7552719116211	-356.8442687988281	-1576.72119140625	396.0269165039062	-216.9687042236328	-1613.780517578125	465.9483642578125	-216.94287109375	-1115.405151367188	123.1461181640625	-446.2986145019531	-1757.778930664062	329.2904357910156	-248.7981872558594	-1758.699584960938	138.9397735595703	-307.5523986816406	-1773.915649414062	390.6319274902344	-301.7547912597656	-1789.7705078125	378.8564453125	-337.7302551269531	-1803.26318359375	387.8139038085938	-287.9017028808594	-1154.238525390625	58.07278823852539	-407.0390625
